<?xml version="1.0" encoding="utf-8"?>
<!-- Generator: Adobe Illustrator 16.0.0, SVG Export Plug-In . SVG Version: 6.00 Build 0)  -->
<!DOCTYPE svg PUBLIC "-//W3C//DTD SVG 1.1//EN" "http://www.w3.org/Graphics/SVG/1.1/DTD/svg11.dtd">
<svg version="1.1" id="Camada_1" xmlns="http://www.w3.org/2000/svg" xmlns:xlink="http://www.w3.org/1999/xlink" x="0px" y="0px"
	 width="517px" height="529.5px" viewBox="0 0 517 529.5" enable-background="new 0 0 517 529.5" xml:space="preserve">
<g>
	<ellipse fill="#6DABE4" cx="259.25" cy="261.75" rx="252.75" ry="255.25"/>
	<path fill="#FFFFFF" d="M114.744,188.995c-4.494,30.638-5.039,88.766-2.632,125.347c1.466,22.282,3.385,62.672,64.691,59.635
		c0,0,136.529,2.276,185.426-0.762c19.683-1.222,48.518-3.798,50.021-74.446c1.216-57.043-0.597-62.107-1.127-89.643
		c-0.371-19.181-5.827-55.512-59.049-55.076c-46.263,0.379-116.17-3.239-175.646-0.38
		C152.733,154.81,119.259,158.228,114.744,188.995z"/>
	<polygon fill="#6DABE4" points="230.812,222.654 232.315,307.736 310.548,265.955 	"/>
</g>
</svg>
